<?xml version="1.0" encoding="UTF-8"?><svg id="Layer_1" xmlns="http://www.w3.org/2000/svg" viewBox="0 0 506.29 506.27"><defs><style>.cls-1{fill:#2563fc;stroke-width:0px;}</style></defs><path class="cls-1" d="M107.81,506.27v-137.26c0-82.6,54.88-153.21,145.03-153.21s145.63,70.64,145.63,153.21v137.26h-76.28v-137.26c0-42.15-22.53-80.31-69.34-80.31s-68.18,38.16-68.18,80.31v137.26h-76.87Z"/><path class="cls-1" d="M143.22,0v67.93c0,40.87-27.03,75.83-71.47,75.83S0,108.8,0,67.93V0"/><path class="cls-1" d="M325.5,0v67.93c0,40.87-27.03,75.83-71.47,75.83s-71.75-34.96-71.75-75.83V0"/><path class="cls-1" d="M506.29,0v67.93c0,40.87-27.03,75.83-71.47,75.83s-71.75-34.96-71.75-75.83V0"/></svg>