<?xml version="1.0" encoding="UTF-8"?><svg id="Layer_1" xmlns="http://www.w3.org/2000/svg" viewBox="0 0 2583.83 383.81"><defs><style>.cls-1{fill:#2563fc;stroke-width:0px;}</style></defs><path class="cls-1" d="M0,376.43v-177.88C0,91.52,70.81,0,187.13,0s187.87,91.52,187.87,198.55v177.88h-98.42v-177.88c0-54.62-29.06-104.07-89.45-104.07s-87.96,49.45-87.96,104.07v177.88H0Z"/><path class="cls-1" d="M443.54,193.38c0-104.07,79.78-190.43,191.62-190.43s190.87,86.36,190.87,190.43-77.54,190.43-190.87,190.43-191.62-85.62-191.62-190.43ZM728.35,193.38c0-54.62-34.3-101.86-93.2-101.86s-93.94,47.24-93.94,101.86,32.81,101.86,93.94,101.86,93.2-46.5,93.2-101.86Z"/><path class="cls-1" d="M1162.96,233.24l97.68,10.33-.75,3.69c0,1.48-.74,2.95-.74,3.69-22.37,81.19-90.96,132.86-179.69,132.86-113.33,0-190.87-85.62-190.87-191.16S968.36,2.95,1079.45,2.95c87.98,0,158.06,53.88,179.69,134.33,0,.74.74,2.21.74,3.69l.75,3.69-96.93,12.55-.75-2.95c-6.71-38.38-43.24-62-83.5-62-59.65,0-93.2,46.5-93.2,100.38s31.32,102.6,93.2,102.6c41.75,0,69.34-19.93,82.01-56.83.75-.74.75-1.47.75-2.21l.74-2.95Z"/><path class="cls-1" d="M1323.19,376.43v-177.88c0-107.02,70.81-198.55,187.13-198.55s187.87,91.52,187.87,198.55v177.88h-98.42v-177.88c0-54.62-29.06-104.07-89.45-104.07s-87.96,49.45-87.96,104.07v177.88h-99.16Z"/><path class="cls-1" d="M1766.73,193.38c0-104.07,79.78-190.43,191.62-190.43s190.87,86.36,190.87,190.43-77.54,190.43-190.87,190.43-191.62-85.62-191.62-190.43ZM2051.55,193.38c0-54.62-34.3-101.86-93.2-101.86s-93.94,47.24-93.94,101.86,32.81,101.86,93.94,101.86,93.2-46.5,93.2-101.86Z"/><path class="cls-1" d="M2486.15,233.24l97.68,10.33-.75,3.69c0,1.48-.74,2.95-.74,3.69-22.37,81.19-90.96,132.86-179.69,132.86-113.33,0-190.87-85.62-190.87-191.16S2291.56,2.95,2402.65,2.95c87.98,0,158.06,53.88,179.69,134.33,0,.74.74,2.21.74,3.69l.75,3.69-96.93,12.55-.75-2.95c-6.71-38.38-43.24-62-83.5-62-59.65,0-93.2,46.5-93.2,100.38s31.32,102.6,93.2,102.6c41.75,0,69.34-19.93,82.01-56.83.75-.74.75-1.47.75-2.21l.74-2.95Z"/></svg>